<svg version="1.2" xmlns="http://www.w3.org/2000/svg" viewBox="0 0 197 198" width="99" height="100"><defs><linearGradient id="P" gradientUnits="userSpaceOnUse"/><linearGradient id="g1" x2="1" href="#P" gradientTransform="matrix(82.231,-142.428,142.428,82.231,55.322,169.149)"><stop stop-color="#4572db"/><stop offset="1" stop-color="#85b2fb"/></linearGradient><linearGradient id="g2" x2="1" href="#P" gradientTransform="matrix(0,-150.204,150.203,0,96.438,173.037)"><stop stop-color="#85b2fb"/><stop offset="1" stop-color="#4572db"/></linearGradient><linearGradient id="g3" x2="1" href="#P" gradientTransform="matrix(41.345,-1.353,1.448,44.261,111.987,77.379)"><stop stop-color="#e69627"/><stop offset="1" stop-color="#f5dd4d"/></linearGradient><linearGradient id="g4" x2="1" href="#P" gradientTransform="matrix(41.178,2.761,-2.053,30.628,113.745,84.152)"><stop stop-color="#e69627"/><stop offset="1" stop-color="#f5dd4d"/></linearGradient><linearGradient id="g5" x2="1" href="#P" gradientTransform="matrix(20.063,1.576,-0.664,8.452,112.898,95.326)"><stop stop-color="#e69627"/><stop offset="1" stop-color="#f5dd4d"/></linearGradient><linearGradient id="g6" x2="1" href="#P" gradientTransform="matrix(19.39,1.523,-0.421,5.354,112.776,96.876)"><stop stop-color="#dc7e22"/><stop offset="1" stop-color="#f6ba26"/></linearGradient><linearGradient id="g7" x2="1" href="#P" gradientTransform="matrix(40.867,2.74,-1.975,29.451,114.095,83.585)"><stop stop-color="#dc7e22"/><stop offset="1" stop-color="#f6ba26"/></linearGradient><linearGradient id="g8" x2="1" href="#P" gradientTransform="matrix(41.336,-1.352,1.447,44.217,111.995,77.357)"><stop stop-color="#dc7e22"/><stop offset="1" stop-color="#f6ba26"/></linearGradient><linearGradient id="g9" x2="1" href="#P" gradientTransform="matrix(-41.345,-1.353,1.448,-44.261,80.889,77.379)"><stop stop-color="#e69627"/><stop offset="1" stop-color="#f5dd4d"/></linearGradient><linearGradient id="g10" x2="1" href="#P" gradientTransform="matrix(-41.178,2.761,-2.053,-30.628,79.131,84.152)"><stop stop-color="#e69627"/><stop offset="1" stop-color="#f5dd4d"/></linearGradient><linearGradient id="g11" x2="1" href="#P" gradientTransform="matrix(-20.063,1.576,-0.664,-8.452,79.978,95.326)"><stop stop-color="#e69627"/><stop offset="1" stop-color="#f5dd4d"/></linearGradient><linearGradient id="g12" x2="1" href="#P" gradientTransform="matrix(-19.391,1.523,-0.421,-5.354,80.099,96.876)"><stop stop-color="#dc7e22"/><stop offset="1" stop-color="#f6ba26"/></linearGradient><linearGradient id="g13" x2="1" href="#P" gradientTransform="matrix(-40.867,2.74,-1.975,-29.451,78.78,83.585)"><stop stop-color="#dc7e22"/><stop offset="1" stop-color="#f6ba26"/></linearGradient><linearGradient id="g14" x2="1" href="#P" gradientTransform="matrix(-41.336,-1.352,1.447,-44.217,80.881,77.357)"><stop stop-color="#dc7e22"/><stop offset="1" stop-color="#f6ba26"/></linearGradient><linearGradient id="g15" x2="1" href="#P" gradientTransform="matrix(.134,14.438,-21.296,.197,96.429,80.295)"><stop stop-color="#dc7e22"/><stop offset="1" stop-color="#f6ba26"/></linearGradient><linearGradient id="g16" x2="1" href="#P" gradientTransform="matrix(28.719,-49.743,51.668,29.831,80.435,75.334)"><stop stop-color="#e69627"/><stop offset="1" stop-color="#f5dd4d"/></linearGradient><radialGradient id="g17" cx="0" cy="0" r="1" href="#P" gradientTransform="matrix(44.221,0,0,44.221,105.393,78.561)"><stop stop-color="#fff" stop-opacity="1"/><stop offset="1" stop-color="#fff" stop-opacity="0"/></radialGradient><linearGradient id="g18" x2="1" href="#P" gradientTransform="matrix(2.172,-14.935,22.904,3.332,95.874,104.63)"><stop stop-color="#dc7e22"/><stop offset="1" stop-color="#f6ba26"/></linearGradient><linearGradient id="g19" x2="1" href="#P" gradientTransform="matrix(1.141,-7.843,28.066,4.082,96.199,110.717)"><stop stop-color="#dc7e22"/><stop offset="1" stop-color="#f6ba26"/></linearGradient><linearGradient id="g20" x2="1" href="#P" gradientTransform="matrix(1.002,-8.16,36.317,4.46,96.055,33.943)"><stop stop-color="#e69627"/><stop offset="1" stop-color="#f5dd4d"/></linearGradient><linearGradient id="g21" x2="1" href="#P" gradientTransform="matrix(7.088,-12.277,12.468,7.198,49.348,118.835)"><stop stop-color="#e69627"/><stop offset="1" stop-color="#f5dd4d"/></linearGradient><linearGradient id="g22" x2="1" href="#P" gradientTransform="matrix(7.088,-12.277,12.467,7.198,135.723,118.835)"><stop stop-color="#e69627"/><stop offset="1" stop-color="#f5dd4d"/></linearGradient></defs><style>.a{fill:url(#g1)}.b{fill:url(#g2)}.c{fill:url(#g3)}.d{fill:url(#g4)}.e{fill:url(#g5)}.f{fill:url(#g6)}.g{fill:url(#g7)}.h{fill:url(#g8)}.i{fill:url(#g9)}.j{fill:url(#g10)}.k{fill:url(#g11)}.l{fill:url(#g12)}.m{fill:url(#g13)}.n{fill:url(#g14)}.o{fill:url(#g15)}.p{fill:url(#g16)}.q{fill:url(#g17)}.r{fill:url(#g18)}.s{fill:url(#g19)}.t{fill:url(#g20)}.u{fill:url(#g21)}.v{fill:url(#g22)}.w{paint-order:stroke fill markers;stroke:#fff;stroke-width: 4;stroke-linejoin: round;;fill:#fff}.x{fill:#fff}.y{paint-order:stroke fill markers;stroke:#fff;stroke-width: 4;stroke-linejoin: round;}</style><path class="a" d="m80.7 182.9l-69.3-69.3c-8.6-8.6-8.6-22.7 0-31.4l69.3-69.3c8.7-8.6 22.8-8.6 31.4 0l69.3 69.3c8.7 8.7 8.7 22.8 0 31.4l-69.3 69.3c-8.6 8.7-22.7 8.7-31.4 0z"/><path class="b" d="m89.9 170.3l-65.8-65.8c-3.7-3.6-3.7-9.5 0-13.1l65.8-65.8c3.6-3.7 9.5-3.7 13.1 0l65.8 65.8c3.6 3.6 3.6 9.5 0 13.1l-65.8 65.8c-3.6 3.6-9.5 3.6-13.1 0z"/><path class="c" d="m152.2 53.9c0.1 0.5 4.7 22.1-12.5 27.9-12.8 4.4-23.6-0.2-26.8 16.8q-0.1 0.5-0.2 0.9 0 0 0-0.4 0-0.1 0-0.4 0 0 0 0c0-4 0.4-18.7 7.3-22.1 8.9-4.5 27-1 31.7-20.2q0.3-1.2 0.5-2.5z"/><path class="d" d="m155.3 71.6c0.1 0.5 3.4 21.6-14.6 22-12.9 0.3-23.5-6.5-27.6 4.7q-0.2 0.6-0.4 1.2c0 0 1-15.5 8.7-16.9 9-1.7 26 5.3 33-8.7q0.5-1.1 0.9-2.3z"/><path class="e" d="m133.2 94.3c0 0-0.3 0.6-0.8 1.4-1.2 1.9-3.8 4.9-7.6 4.3l-9.1-1.5c-2-0.3-3.1 1.1-3.1 1.1 0 0 0.1-0.5 0.4-1.2 0.9-2.5 3.6-7.8 9.2-6.5 9.9 2.3 11 2.4 11 2.4z"/><path class="f" d="m117.6 96.8c4.8 0.2 10.4 4 14.8-1.1-1.2 1.9-3.8 4.9-7.6 4.3l-9.1-1.5c-2-0.3-3.1 1.1-3.1 1.1 0 0 0.1-0.5 0.4-1.2 0.9-0.9 2.4-1.7 4.6-1.6z"/><path class="g" d="m154.4 73.9q0.5-1.1 0.9-2.3c0.1 0.5 3.4 21.6-14.6 22-12.9 0.3-23.5-6.5-27.6 4.7 2.2-11 7.7-11.6 20.6-9.3 14.8 2.5 19.6-9.6 20.7-15.1z"/><path class="h" d="m152.2 53.9c0.1 0.5 4.7 22.1-12.5 27.9-12.8 4.4-23.6-0.2-26.8 16.8-0.1 0.2-0.2 0.9-0.2 0.9 0-0.3 0.1-1 0.1-1 2.4-21.4 23.9-16.1 31.8-24.9 5.8-6.3 7-13.5 7.1-17.2q0.3-1.2 0.5-2.5z"/><path class="i" d="m40.7 53.9c-0.1 0.5-4.7 22.1 12.4 27.9 12.8 4.4 23.7-0.2 26.9 16.8q0.1 0.5 0.2 0.9 0 0 0-0.4 0-0.1 0-0.4 0 0 0 0c0-4-0.4-18.7-7.3-22.1-8.9-4.5-27-1-31.7-20.2q-0.3-1.2-0.5-2.5z"/><path class="j" d="m37.6 71.6c-0.1 0.5-3.4 21.6 14.6 22 12.9 0.3 23.5-6.5 27.6 4.7q0.2 0.6 0.4 1.2c0 0-1.1-15.5-8.7-16.9-9.1-1.7-26 5.3-33-8.7q-0.5-1.1-0.9-2.3z"/><path class="k" d="m59.7 94.3c0 0 0.3 0.6 0.8 1.4 1.2 1.9 3.8 4.9 7.6 4.3l9.1-1.5c2-0.3 3.1 1.1 3.1 1.1 0 0-0.1-0.5-0.4-1.2-1-2.5-3.6-7.8-9.2-6.5-10 2.3-11 2.4-11 2.4z"/><path class="l" d="m75.3 96.8c-4.9 0.2-10.4 4-14.8-1.1 1.2 1.9 3.8 4.9 7.6 4.3l9.1-1.5c2-0.3 3.1 1.1 3.1 1.1 0 0-0.1-0.5-0.4-1.2-0.9-0.9-2.4-1.7-4.6-1.6z"/><path class="m" d="m38.5 73.9q-0.5-1.1-0.9-2.3c-0.1 0.5-3.4 21.6 14.6 22 12.9 0.3 23.5-6.5 27.6 4.7-2.2-11-7.7-11.6-20.6-9.3-14.8 2.5-19.6-9.6-20.7-15.1z"/><path class="n" d="m40.7 53.9c-0.1 0.5-4.7 22.1 12.4 27.9 12.8 4.4 23.7-0.2 26.9 16.8 0.1 0.2 0.2 0.9 0.2 0.9-0.1-0.3-0.1-1-0.1-1-2.4-21.4-23.9-16.1-31.8-24.9-5.8-6.3-7-13.5-7.1-17.2q-0.3-1.2-0.5-2.5z"/><path fill-rule="evenodd" class="o" d="m106 74.8v12.9h-19.1v-12.9z"/><path class="p" d="m96.4 80.4c-14.8 0-26.8-12-26.8-26.8v-18.5c0-1.3 1-2.3 2.3-2.3h49.1c1.3 0 2.3 1 2.3 2.3v18.5c0 14.8-12 26.8-26.9 26.8z"/><path class="q" d="m89.3 60.2c5.6-0.7 11.2-2 16.4-4.2 4.5-1.9 8.7-4.6 12.5-7.7q2.6-2.1 5.1-4.4v-8.8c0-1.3-1-2.3-2.3-2.3h-49.1c-1.3 0-2.3 1-2.3 2.3v18.5c0 2.5 0.4 5 1 7.4 6.3 0.3 12.5 0 18.7-0.8z"/><path class="r" d="m106.7 87.7h-20.5c-3.9 0-7 3.1-7 7v12.6h34.5v-12.6c0-3.9-3.2-7-7-7z"/><path class="s" d="m113.2 103.5h-33.5c-3 0-5.5 2.4-5.5 5.5v0.5c0 0.5 0.4 0.8 0.8 0.8h42.8c0.5 0 0.8-0.3 0.8-0.8v-0.5c0-3.1-2.4-5.5-5.4-5.5z"/><path class="t" d="m122.8 27.4h-52.7c-1.9 0-3.4 1.5-3.4 3.3v0.2c0 1.9 1.5 3.3 3.4 3.3h52.7c1.9 0 3.3-1.4 3.3-3.3v-0.2c0-1.8-1.4-3.3-3.3-3.3z"/><path class="u" d="m54.3 105.6l1.2 2.7c0.2 0.3 0.6 0.6 1 0.6l2.9 0.3c1 0.1 1.4 1.4 0.7 2.1l-2.2 2c-0.3 0.3-0.4 0.7-0.3 1.1l0.6 2.9c0.2 1-0.8 1.8-1.7 1.3l-2.6-1.5c-0.4-0.2-0.8-0.2-1.2 0l-2.5 1.5c-0.9 0.5-2-0.2-1.8-1.2l0.6-2.9c0.1-0.4-0.1-0.9-0.4-1.1l-2.2-2c-0.7-0.7-0.3-1.9 0.7-2.1l2.9-0.3c0.4-0.1 0.8-0.3 0.9-0.7l1.2-2.7c0.4-0.9 1.8-1 2.2 0z"/><path class="v" d="m140.7 105.6l1.2 2.7c0.2 0.3 0.5 0.6 0.9 0.6l3 0.3c1 0.1 1.4 1.4 0.7 2.1l-2.2 2c-0.3 0.3-0.4 0.7-0.4 1.1l0.7 2.9c0.2 1-0.9 1.8-1.8 1.3l-2.5-1.5c-0.4-0.2-0.8-0.2-1.2 0l-2.6 1.5c-0.8 0.5-1.9-0.2-1.7-1.2l0.6-2.9c0.1-0.4-0.1-0.9-0.4-1.1l-2.2-2c-0.8-0.7-0.4-1.9 0.6-2.1l3-0.3c0.4-0.1 0.8-0.3 0.9-0.7l1.2-2.7c0.4-0.9 1.7-1 2.2 0z"/><path class="w" d="m65.2 134v-16h2.1v14.2h7.9v1.8zm12 0v-16h10.2v1.8h-8v4.7h7.6v1.9h-7.6v5.8h8.2v1.8zm20.6 0h-2.5l-6.1-16h2.3l5.1 13.5 5.1-13.5h2.2zm9.4 0v-16.1h10.2v1.9h-8v4.7h7.7v1.8h-7.7v5.8h8.2v1.9zm13 0v-16.1h2.2v14.2h7.8v1.9z"/><path class="w" d="m82.9 151v-10h2.2v9.7q0 2.6 1 3.7 0.9 1.1 3 1.1 2.1 0 3-1.1 1-1.1 1-3.7v-9.7h2.2v10q0 3.1-1.6 4.7-1.6 1.6-4.6 1.6-3.1 0-4.6-1.6-1.6-1.6-1.6-4.7zm21.2-8.3h-2.8v6.1h2.8q1.5 0 2.3-0.8 0.9-0.8 0.9-2.2 0-1.5-0.9-2.3-0.8-0.8-2.3-0.8zm-4.9 14.3v-16h4.9q2.7 0 4.1 1.2 1.4 1.2 1.4 3.6 0 2.3-1.4 3.5-1.4 1.3-4.1 1.3h-2.8v6.4z"/><path class="x" d="m65.2 134v-16h2.1v14.2h7.9v1.8zm12 0v-16h10.2v1.8h-8v4.7h7.6v1.9h-7.6v5.8h8.2v1.8zm20.6 0h-2.5l-6.1-16h2.3l5.1 13.5 5.1-13.5h2.2zm9.4 0v-16.1h10.2v1.9h-8v4.7h7.7v1.8h-7.7v5.8h8.2v1.9zm13 0v-16.1h2.2v14.2h7.8v1.9z"/><path class="x" d="m82.9 151v-10h2.2v9.7q0 2.6 1 3.7 0.9 1.1 3 1.1 2.1 0 3-1.1 1-1.1 1-3.7v-9.7h2.2v10q0 3.1-1.6 4.7-1.6 1.6-4.6 1.6-3.1 0-4.6-1.6-1.6-1.6-1.6-4.7zm21.2-8.3h-2.8v6.1h2.8q1.5 0 2.3-0.8 0.9-0.8 0.9-2.2 0-1.5-0.9-2.3-0.8-0.8-2.3-0.8zm-4.9 14.3v-16h4.9q2.7 0 4.1 1.2 1.4 1.2 1.4 3.6 0 2.3-1.4 3.5-1.4 1.3-4.1 1.3h-2.8v6.4z"/><path class="y" d="m65.2 134v-16h2.1v14.2h7.9v1.8zm12 0v-16h10.2v1.8h-8v4.7h7.6v1.9h-7.6v5.8h8.2v1.8zm20.6 0h-2.5l-6.1-16h2.3l5.1 13.5 5.1-13.5h2.2zm9.4 0v-16.1h10.2v1.9h-8v4.7h7.7v1.8h-7.7v5.8h8.2v1.9zm13 0v-16.1h2.2v14.2h7.8v1.9z"/><path class="y" d="m82.9 151v-10h2.2v9.7q0 2.6 1 3.7 0.9 1.1 3 1.1 2.1 0 3-1.1 1-1.1 1-3.7v-9.7h2.2v10q0 3.1-1.6 4.7-1.6 1.6-4.6 1.6-3.1 0-4.6-1.6-1.6-1.6-1.6-4.7zm21.2-8.3h-2.8v6.1h2.8q1.5 0 2.3-0.8 0.9-0.8 0.9-2.2 0-1.5-0.9-2.3-0.8-0.8-2.3-0.8zm-4.9 14.3v-16h4.9q2.7 0 4.1 1.2 1.4 1.2 1.4 3.6 0 2.3-1.4 3.5-1.4 1.3-4.1 1.3h-2.8v6.4z"/></svg>