<svg width="100px" height="100px" version="1.1" id="Layer_1"
     xmlns="http://www.w3.org/2000/svg" xmlns:xlink="http://www.w3.org/1999/xlink"
     x="0px" y="0px" viewBox="100 30 205 110"
     style="enable-background:new 0 0 100 100;" xml:space="preserve">
<g>
	<g>
		
			<linearGradient id="SVGID_00000152974680528578944010000015078722069388588698_" gradientUnits="userSpaceOnUse" x1="203.429" y1="145.8582" x2="203.429" y2="54.6265">
			<stop  offset="0" style="stop-color:#662006"/>
			<stop  offset="1" style="stop-color:#F19915"/>
		</linearGradient>
		<path style="fill:url(#SVGID_00000152974680528578944010000015078722069388588698_);" d="M294.339,108.599
			c0.511-0.307,2.047-0.628,3.946-0.979c2.526-0.467,4.503-2.474,4.908-5.011c2.664-16.698,2.583-35.644-1.44-40.692
			c-7.383-9.263-59.427-13.136-98.324-13.136s-90.941,3.873-98.324,13.136c-0.834,1.046-1.498,2.691-2.003,4.788
			c-0.989,4.106,1.776,8.183,5.933,8.931c3.239,0.583,6.154,1.095,6.957,1.577c1.126,0.676-7.487,1.173-12.671,1.407
			c-0.821,0.037-1.472,0.707-1.474,1.528c-0.003,0.974,0.006,1.968,0.029,2.978c0.035,1.585,1.187,2.93,2.747,3.211
			c1.491,0.269,2.785,0.507,3.161,0.733c0.116,0.07,0.028,0.135-0.209,0.197c-3.149,0.821-5.33,3.678-5.003,6.916
			c1.52,15.029,5.34,30.395,10.637,34.942c10.752,9.228,78.744,9.771,90.058,9.174c0.114-0.006,0.213-0.006,0.326,0
			c11.314,0.597,79.306,0.054,90.058-9.174c2.543-2.182,4.745-6.859,6.516-12.795c0.992-3.326-1.185-6.733-4.619-7.243
			C294.561,108.941,294.041,108.778,294.339,108.599z"/>
		
			<linearGradient id="SVGID_00000052809706352221749710000010804772308061686664_" gradientUnits="userSpaceOnUse" x1="203.4289" y1="134.1945" x2="203.4289" y2="58.4854">
			<stop  offset="0" style="stop-color:#914010"/>
			<stop  offset="1" style="stop-color:#BD6A15"/>
		</linearGradient>
		<path style="fill:url(#SVGID_00000052809706352221749710000010804772308061686664_);" d="M285.024,64.535
			c-6.127-7.687-49.316-10.901-81.595-10.901c-32.279,0-75.468,3.214-81.595,10.901c-5.736,7.197-1.818,48.442,6.725,55.774
			c8.966,7.695,65.904,8.113,74.87,7.605c8.966,0.507,65.904,0.09,74.87-7.605C286.842,112.977,290.76,71.732,285.024,64.535z"/>
		<g>
			<defs>
				<path id="SVGID_00000049920357564466295330000006238600970398630552_" d="M294.339,108.599c0.511-0.307,2.047-0.628,3.946-0.979
					c2.526-0.467,4.503-2.474,4.908-5.011c2.664-16.698,2.583-35.644-1.44-40.692c-7.383-9.263-59.427-13.136-98.324-13.136
					s-90.941,3.873-98.324,13.136c-0.834,1.046-1.498,2.691-2.003,4.788c-0.989,4.106,1.776,8.183,5.933,8.931
					c3.239,0.583,6.154,1.095,6.957,1.577c1.126,0.676-7.487,1.173-12.671,1.407c-0.821,0.037-1.472,0.707-1.474,1.528
					c-0.003,0.974,0.006,1.968,0.029,2.978c0.035,1.585,1.187,2.93,2.747,3.211c1.491,0.269,2.785,0.507,3.161,0.733
					c0.116,0.07,0.028,0.135-0.209,0.197c-3.149,0.821-5.33,3.678-5.003,6.916c1.52,15.029,5.34,30.395,10.637,34.942
					c10.752,9.228,78.744,9.771,90.058,9.174c0.114-0.006,0.213-0.006,0.326,0c11.314,0.597,79.306,0.054,90.058-9.174
					c2.543-2.182,4.745-6.859,6.516-12.795c0.992-3.326-1.185-6.733-4.619-7.243C294.561,108.941,294.041,108.778,294.339,108.599z"
					/>
			</defs>
			<clipPath id="SVGID_00000097478685495400627920000014876842259314635658_">
				<use xlink:href="#SVGID_00000049920357564466295330000006238600970398630552_"  style="overflow:visible;"/>
			</clipPath>
			<path style="opacity:0.2;clip-path:url(#SVGID_00000097478685495400627920000014876842259314635658_);fill:#9A4B11;" d="
				M309.171,50.533c-47.007,20.797-25.275,93.182-48.007,104.876c-9.984-1.143-9.984-1.143-9.984-1.143s22.161-14.496,17.444-43.223
				c-4.716-28.727-7.798-59.203-4.969-65.722C266.484,38.803,309.171,50.533,309.171,50.533z"/>
			<path style="opacity:0.2;clip-path:url(#SVGID_00000097478685495400627920000014876842259314635658_);fill:#9A4B11;" d="
				M251.18,38.413c-27.041,33.496,6.434,103.52-22.838,113.708c-29.069,0.547-65.819-9.773-65.819-9.773s54.466-19.687,65.06-57.647
				C238.178,46.741,219,37.637,219,37.637L251.18,38.413z"/>
			<path style="opacity:0.2;clip-path:url(#SVGID_00000097478685495400627920000014876842259314635658_);fill:#9A4B11;" d="
				M199.599,34.748c12.248,72.824-69.514,127.951-110.891,87.809c0-39.61,0-41.797,0-41.797s104.602,20.192,100.63-39.391
				C196.62,39.247,199.599,34.748,199.599,34.748z"/>
			<path style="opacity:0.4;clip-path:url(#SVGID_00000097478685495400627920000014876842259314635658_);fill:#662006;" d="
				M104.321,63.177c1.784,8.881,16.584,13.281,18.584,13.681s-15.97,2.324-19.585,1.762C99.704,78.058,96.32,68.65,104.321,63.177z"
				/>
			<path style="clip-path:url(#SVGID_00000097478685495400627920000014876842259314635658_);fill:#FAB43C;" d="M101.845,80.925
				c4.412-2.45,8.793,1.867,21.06-4.067C111.838,78.892,101.451,77.283,101.845,80.925z"/>
			<path style="opacity:0.4;clip-path:url(#SVGID_00000097478685495400627920000014876842259314635658_);fill:#662006;" d="
				M303.621,99.733c-6.171,8.045-16.417,8.026-17.017,8.626s7.258,0.223,11.729,1.961
				C302.805,112.058,305.438,102.807,303.621,99.733z"/>
			<path style="clip-path:url(#SVGID_00000097478685495400627920000014876842259314635658_);fill:#FAB43C;" d="M290.068,108.873
				c6.4,1.867,7.118,4.544,7.37,9.386c0.252,4.841-2.229,9.163-2.229,9.163s7.895-11.725,4.062-16.11
				C298.138,109.225,290.068,108.873,290.068,108.873z"/>
			<path style="opacity:0.4;clip-path:url(#SVGID_00000097478685495400627920000014876842259314635658_);fill:#662006;" d="
				M101.966,78.722c0.782,4.011,5.201,6.536,9.912,7.936c4.711,1.4-8.693,1.9-9.959,0C100.653,84.758,101.966,78.722,101.966,78.722
				z"/>
			<path style="clip-path:url(#SVGID_00000097478685495400627920000014876842259314635658_);fill:#FAB43C;" d="M112.643,87.45
				c-6.339,2.308-7.139,3.308-7.239,11.008s1.923,19.892,1.923,19.892s-8.223-23.892-6.623-28.192
				C102.304,85.858,108.782,88.242,112.643,87.45z"/>
		</g>
		<path style="fill:#A25012;" d="M188.638,125.325c-33.067-2.4-62.133-6.667-67.467-24.533c0,0-0.036,0.035-0.088,0.086
			c1.634,8.896,4.216,16.634,7.476,19.431c8.966,7.695,65.904,8.113,74.87,7.605c3.627,0.205,15.105,0.259,28.081-0.259
			C225.271,127.499,211.578,126.99,188.638,125.325z"/>
		<g>
			<path style="fill:#612601;" d="M193.449,138.961c-22.439,0.001-71.435-1.619-80.567-9.456
				c-5.854-5.024-9.481-22.14-10.809-35.271c-0.306-3.031,1.44-5.841,4.256-7.065c-0.566-0.118-1.233-0.238-1.796-0.34
				c-1.79-0.323-3.118-1.876-3.159-3.692c-0.022-1.015-0.032-2.013-0.029-2.991c0.004-1.086,0.861-1.977,1.952-2.026
				c6.956-0.314,10.031-0.634,11.389-0.85c-1.269-0.338-3.363-0.715-5.407-1.083l-0.335-0.06c-2.154-0.388-4.076-1.662-5.273-3.496
				c-1.184-1.815-1.56-3.962-1.058-6.045c0.538-2.234,1.244-3.91,2.098-4.982c8.401-10.54,68.246-13.325,98.716-13.325
				s90.314,2.785,98.715,13.325c4.382,5.498,4.065,25.27,1.542,41.082c-0.436,2.738-2.571,4.918-5.31,5.424
				c-0.592,0.109-1.668,0.309-2.538,0.518c1.693,0.313,3.18,1.311,4.104,2.762c0.96,1.509,1.217,3.361,0.703,5.082
				c-1.945,6.518-4.188,10.902-6.669,13.031c-10.99,9.432-79.722,9.856-90.41,9.294c-0.095-0.004-0.178-0.004-0.274,0
				C201.485,138.895,198.014,138.961,193.449,138.961z M203.429,49.28c-43.539,0-91.158,4.448-97.934,12.948
				c-0.763,0.957-1.405,2.503-1.909,4.594c-0.437,1.813-0.109,3.683,0.923,5.265c1.047,1.604,2.728,2.719,4.612,3.058l0.334,0.06
				c3.682,0.662,5.979,1.093,6.792,1.58c0.32,0.192,0.378,0.482,0.326,0.689c-0.126,0.497-0.268,1.06-13.231,1.646
				c-0.557,0.025-0.995,0.478-0.997,1.031c-0.003,0.97,0.006,1.959,0.029,2.965c0.03,1.344,1.012,2.492,2.336,2.731
				c1.78,0.321,2.892,0.534,3.329,0.797c0.172,0.104,0.316,0.366,0.288,0.565c-0.057,0.396-0.473,0.504-0.629,0.545
				c-2.978,0.777-4.926,3.461-4.63,6.382c1.724,17.049,5.832,30.636,10.465,34.612c10.09,8.66,75.466,9.807,89.706,9.054
				c0.132-0.006,0.247-0.006,0.378,0c14.238,0.753,79.616-0.394,89.706-9.054c2.3-1.974,4.5-6.316,6.363-12.559
				c0.43-1.443,0.216-2.996-0.588-4.26c-0.807-1.269-2.128-2.123-3.625-2.346c-1.106-0.164-1.615-0.315-1.706-0.773
				c-0.019-0.094-0.052-0.418,0.315-0.639c0.001-0.001,0.001-0.001,0.001-0.001c0.566-0.339,1.993-0.65,4.112-1.042
				c2.324-0.43,4.135-2.278,4.505-4.598c2.879-18.046,2.292-35.748-1.337-40.302C294.586,53.728,246.967,49.28,203.429,49.28z"/>
		</g>
		<g>
			<g>
				<path style="fill:#9F520C;" d="M158.074,116.229c-0.063,0-0.127-0.003-0.19-0.009l-8.394-0.803
					c-0.999-0.095-1.773-0.917-1.808-1.92c-0.165-4.646-0.248-10.307-0.248-16.827c0-6.533,0.208-15.352,0.619-26.213
					c0.031-0.809,0.546-1.521,1.307-1.801c3.665-1.352,7.48-2.037,11.338-2.037c4.149,0,7.892,1.543,11.122,4.587
					c3.264,3.077,4.919,6.992,4.919,11.639c0,4.64-1.774,8.697-5.274,12.059c-3.023,2.902-6.91,5.125-11.573,6.618
					c0.012,4.102,0.073,8.352,0.183,12.656c0.014,0.572-0.217,1.124-0.636,1.514C159.066,116.038,158.578,116.229,158.074,116.229z
					 M151.623,111.603l4.399,0.42c-0.088-4.086-0.133-8.11-0.133-11.99c0-0.898,0.598-1.686,1.463-1.927
					c4.674-1.302,8.489-3.351,11.341-6.088c2.722-2.614,4.045-5.615,4.045-9.173c0-3.55-1.198-6.405-3.662-8.727
					c-2.499-2.354-5.24-3.499-8.379-3.499c-2.947,0-5.867,0.457-8.699,1.358c-0.374,10.184-0.564,18.486-0.564,24.692
					C151.434,102.342,151.498,107.354,151.623,111.603z M157.889,94.998c-0.422,0-0.839-0.134-1.187-0.39
					c-0.516-0.38-0.818-0.984-0.813-1.625c0.041-5.424,0.166-11.112,0.372-16.906c0.034-0.958,0.743-1.757,1.69-1.905
					c1.88-0.293,2.49-0.333,2.838-0.333c2.013,0,3.807,0.927,5.332,2.756c1.434,1.721,2.161,3.937,2.161,6.588
					c0,2.658-0.918,5.087-2.728,7.219l0,0c-1.742,2.052-4.117,3.566-7.06,4.5C158.296,94.967,158.092,94.998,157.889,94.998z
					 M160.201,77.893c-0.135,4.101-0.23,8.139-0.281,12.058c1.015-0.586,1.87-1.294,2.585-2.136l0,0
					c1.196-1.409,1.777-2.923,1.777-4.63c0-1.714-0.403-3.031-1.233-4.027c-1.099-1.317-1.972-1.317-2.259-1.317
					C160.753,77.84,160.611,77.844,160.201,77.893z M164.03,89.109h0.01H164.03z"/>
			</g>
			<g>
				<path style="fill:#9F520C;" d="M185.909,114.563c-0.057,0-0.113-0.002-0.169-0.007l-6.542-0.556
					c-0.987-0.083-1.764-0.878-1.827-1.867c-0.535-8.473-0.806-16.354-0.806-23.425c0-7.083,0.23-13.604,0.685-19.381
					c0.042-0.533,0.295-1.027,0.704-1.372c0.408-0.344,0.934-0.518,1.47-0.463l8.208,0.74c1.098,0.099,1.909,1.067,1.813,2.166
					c-0.609,6.986-0.918,13.76-0.918,20.132c0,5.049,0.064,9.072,0.19,12.006c1.947-0.229,4.87-0.551,8.831-0.973
					c1.048-0.113,2.003,0.61,2.182,1.649l1.234,7.159c0.093,0.54-0.04,1.095-0.367,1.535c-0.328,0.44-0.821,0.726-1.366,0.791
					c-3.05,0.366-7.43,0.986-13.019,1.843C186.111,114.555,186.01,114.563,185.909,114.563z M181.257,110.16l4.583,0.389
					c4.362-0.668,7.99-1.191,10.825-1.562l-0.56-3.248c-4.694,0.504-7.716,0.849-8.996,1.027c-0.55,0.074-1.106-0.079-1.537-0.429
					c-0.431-0.35-0.697-0.863-0.734-1.417c-0.21-3.106-0.313-7.814-0.313-14.392c0-5.88,0.258-12.092,0.768-18.492l-4.204-0.379
					c-0.349,5.162-0.525,10.886-0.525,17.05C180.564,95.215,180.797,102.424,181.257,110.16z"/>
			</g>
			<g>
				<path style="fill:#9F520C;" d="M208.066,117.154c-0.057,0-0.114-0.002-0.172-0.007l-8.641-0.74
					c-0.583-0.05-1.114-0.353-1.455-0.828c-0.34-0.475-0.456-1.076-0.316-1.644l11.047-44.745c0.236-0.956,1.136-1.595,2.114-1.513
					l11.418,0.987c0.891,0.077,1.622,0.736,1.792,1.613l8.085,41.844c0.119,0.614-0.057,1.249-0.475,1.715
					c-0.417,0.466-1.024,0.707-1.654,0.658l-8.949-0.74c-0.913-0.076-1.659-0.762-1.808-1.666l-1.131-6.836l-5.862,0.236
					l-2.034,10.064C209.835,116.49,209.009,117.154,208.066,117.154z M201.927,112.621l4.531,0.388l1.992-9.854
					c0.183-0.903,0.959-1.565,1.88-1.602l9.196-0.371c1.017-0.045,1.889,0.676,2.054,1.672l1.165,7.041l4.766,0.395l-7.298-37.771
					l-8.209-0.71L201.927,112.621z M211.706,98.947c-0.587,0-1.145-0.257-1.525-0.707c-0.396-0.467-0.557-1.09-0.435-1.69
					l3.888-19.193c0.192-0.948,1.043-1.619,2.002-1.603c0.967,0.02,1.781,0.729,1.934,1.684l3.024,18.947
					c0.09,0.566-0.066,1.144-0.431,1.586c-0.364,0.443-0.9,0.708-1.473,0.728l-6.913,0.246
					C211.753,98.947,211.729,98.947,211.706,98.947z M215.36,88.979l-1.191,5.879l2.117-0.076L215.36,88.979z"/>
			</g>
			<g>
				<path style="fill:#9F520C;" d="M248.613,115.673c-0.07,0-0.141-0.004-0.211-0.011l-8.147-0.864
					c-0.944-0.1-1.688-0.851-1.78-1.796c-0.375-3.871-0.565-8.047-0.565-12.413v-4.304c-5.413-11.489-8.337-19.618-8.936-24.846
					c-0.069-0.6,0.137-1.198,0.56-1.629c0.423-0.431,1.016-0.647,1.619-0.589l7.715,0.741c0.88,0.084,1.601,0.737,1.771,1.605
					c0.671,3.418,1.932,7.419,3.757,11.933c2.493-5.727,4.51-11.023,6.012-15.79c0.284-0.899,1.151-1.472,2.097-1.39l7.159,0.679
					c0.612,0.058,1.164,0.395,1.496,0.913c0.331,0.518,0.406,1.16,0.203,1.741c-3.011,8.584-6.671,17.427-10.883,26.288
					c-0.076,3.47-0.114,6.589-0.114,9.278c0,2.752,0.082,5.558,0.244,8.339c0.034,0.586-0.191,1.158-0.616,1.563
					C249.619,115.477,249.124,115.673,248.613,115.673z M242.313,110.993l4.186,0.444c-0.088-2.082-0.132-4.165-0.132-6.22
					c0-2.829,0.042-6.125,0.124-9.796c0.006-0.283,0.073-0.561,0.194-0.816c3.832-8.034,7.205-16.051,10.043-23.868l-3.001-0.285
					c-1.872,5.675-4.409,12.015-7.554,18.873c-0.326,0.711-1.036,1.167-1.818,1.167c-0.002,0-0.005,0-0.008,0
					c-0.785-0.003-1.495-0.465-1.816-1.181c-2.633-5.868-4.481-11.076-5.503-15.508l-3.649-0.351
					c1.092,4.897,3.889,12.119,8.34,21.53c0.126,0.267,0.192,0.559,0.192,0.855v4.752
					C241.911,104.221,242.046,107.713,242.313,110.993z"/>
			</g>
		</g>
		<g>
			<g>
				<path style="fill:#FFE6BF;" d="M149.681,113.426c-0.165-4.648-0.247-10.234-0.247-16.756c0-6.521,0.205-15.233,0.617-26.138
					c3.456-1.274,7.005-1.913,10.646-1.913c3.642,0,6.891,1.349,9.751,4.043c2.859,2.695,4.29,6.09,4.29,10.183
					c0,4.095-1.554,7.633-4.66,10.616c-3.107,2.983-7.17,5.174-12.189,6.572c0,4.608,0.062,9.341,0.185,14.195L149.681,113.426z
					 M164.03,89.109c1.501-1.769,2.252-3.743,2.252-5.925c0-2.181-0.566-3.95-1.697-5.308c-1.132-1.357-2.397-2.037-3.795-2.037
					c-0.37,0-1.214,0.104-2.53,0.309c-0.207,5.802-0.33,11.418-0.371,16.85C160.481,92.175,162.528,90.879,164.03,89.109z"/>
				<path style="fill:#FFE6BF;" d="M179.367,112.007c-0.535-8.475-0.802-16.241-0.802-23.299c0-7.056,0.225-13.464,0.679-19.225
					l8.208,0.74c-0.617,7.077-0.926,13.847-0.926,20.306c0,6.46,0.102,11.212,0.309,14.257c1.481-0.206,5.123-0.617,10.924-1.234
					l1.234,7.159c-3.086,0.37-7.447,0.987-13.084,1.852L179.367,112.007z"/>
				<path style="fill:#FFE6BF;" d="M221.025,111.76l-1.419-8.579l-9.196,0.371l-2.345,11.602l-8.641-0.74l11.047-44.745
					l11.418,0.987l8.085,41.844L221.025,111.76z M215.594,77.754l-3.888,19.193l6.913-0.246L215.594,77.754z"/>
				<path style="fill:#FFE6BF;" d="M239.911,100.589v-4.752c-5.391-11.396-8.374-19.605-8.949-24.626l7.715,0.741
					c0.905,4.608,2.797,10.121,5.678,16.54c3.415-7.446,6.068-14.174,7.961-20.182l7.159,0.679
					c-3.045,8.683-6.707,17.508-10.986,26.477c-0.083,3.702-0.124,6.953-0.124,9.751c0,2.799,0.082,5.616,0.247,8.455l-8.146-0.864
					C240.096,108.982,239.911,104.909,239.911,100.589z"/>
			</g>
		</g>
		<path style="fill:#FAB43C;" d="M239.999,54.956c1.63,4.37,22.061,3.188,20.597,1.781
			C259.133,55.329,239.479,53.561,239.999,54.956z"/>
		<path style="fill:#FAB43C;" d="M262.139,57.058c-0.833,0.643,2.389,2.1,4.02,1.2C267.791,57.358,263.305,56.158,262.139,57.058z"
			/>
		<path style="fill:#E69014;" d="M269.605,58.544c9.199,2.414,16.351,15.014,18.125,25.414
			C287.73,65.958,289.006,61.03,269.605,58.544z"/>
		<path style="fill:#FAB43C;" d="M135.478,55.434c-0.533,1.899,0.133,5.499,5.2,7.099C138.002,58.539,135.478,55.434,135.478,55.434
			z"/>
		<path style="fill:#944210;" d="M135.478,55.434c0,0,3.541,1.289,4.17,2.653c0.63,1.364,1.03,4.447,1.03,4.447L135.478,55.434z"/>
	</g>
</g>
</svg>
