<svg version="1.1" id="Layer_1" xmlns="http://www.w3.org/2000/svg" xmlns:xlink="http://www.w3.org/1999/xlink" x="0px" y="0px"
width="100px" height="100px"	 viewBox="600 60 80 90" style="enable-background:new 0 0 1250 500;" xml:space="preserve">

			<g>
					<linearGradient id="SVGID_00000030470389750411010730000015392025014253145271_" gradientUnits="userSpaceOnUse" x1="642.2998" y1="65.595" x2="642.2998" y2="139.9196">
					<stop  offset="0" style="stop-color:#BD6E15"/>
					<stop  offset="1" style="stop-color:#914210"/>
				</linearGradient>
				<path style="fill:url(#SVGID_00000030470389750411010730000015392025014253145271_);" d="M680.676,103.62
					c0,9.985-7.181,18.777-14.146,25.235c-6.738,6.259-15.729,11.333-25.886,11.333c-10.157,0-20.179-3.971-26.917-10.23
					c-2.733-2.534-4.828-5.578-6.369-8.945c-0.658-1.438-0.056-3.142,1.322-3.915l0.244-0.137c0,0-1.059-0.291-2.244-0.828
					c-0.81-0.367-1.418-1.091-1.619-1.957c-0.776-3.358-1.139-6.884-1.139-10.438c0-1.32,0.053-2.637,0.16-3.943
					c0.119-1.449,1.305-2.582,2.757-2.657c1.419-0.073,2.815-0.184,3.062-0.338c0,0-1.285-0.357-2.865-1.023
					c-1.328-0.559-2.051-2.024-1.681-3.417c1.524-5.723,4.312-10.916,8.562-14.871c6.738-6.25,16.57-12.653,26.727-12.653
					c10.157,0,20.576,6.784,27.315,13.033c5.354,4.976,9.997,11.626,11.85,18.98c0.34,1.351-0.355,2.742-1.613,3.339
					c-2.421,1.149-4.674,1.776-4.674,1.776c0.447,0.273,4.699,0.103,6.443,0.337c0.404,0.054,0.698,0.406,0.706,0.814
					C680.674,103.283,680.676,103.451,680.676,103.62z"/>
				
					<linearGradient id="SVGID_00000146496644288770366100000015350772147552564665_" gradientUnits="userSpaceOnUse" x1="642.2998" y1="65.595" x2="642.2998" y2="139.9196">
					<stop  offset="0" style="stop-color:#F19915"/>
					<stop  offset="1" style="stop-color:#662006"/>
				</linearGradient>
				<path style="fill:url(#SVGID_00000146496644288770366100000015350772147552564665_);" d="M680.671,103.116
					c-0.009-0.408-0.302-0.76-0.706-0.814c-1.743-0.234-5.995-0.064-6.443-0.337c0,0,2.253-0.627,4.674-1.776
					c1.258-0.597,1.953-1.988,1.613-3.339c-1.852-7.354-6.496-14.004-11.85-18.98c-6.738-6.25-17.158-13.033-27.315-13.033
					c-10.157,0-19.989,6.404-26.727,12.653c-4.25,3.955-7.038,9.148-8.562,14.871c-0.371,1.392,0.353,2.857,1.681,3.417
					c1.58,0.666,2.865,1.023,2.865,1.023c-0.247,0.154-1.643,0.264-3.062,0.338c-1.452,0.075-2.637,1.208-2.757,2.657
					c-0.107,1.306-0.16,2.622-0.16,3.943c0,3.554,0.363,7.08,1.139,10.438c0.2,0.866,0.809,1.591,1.619,1.957
					c1.185,0.537,2.244,0.828,2.244,0.828l-0.244,0.137c-1.379,0.774-1.98,2.478-1.322,3.916c1.54,3.366,3.636,6.411,6.369,8.945
					c6.738,6.259,16.76,10.23,26.917,10.23c10.157,0,19.147-5.074,25.886-11.333c6.964-6.458,14.146-15.249,14.146-25.235
					C680.676,103.451,680.674,103.283,680.671,103.116z M660.677,122.489c-5.109,4.744-11.932,8.592-19.634,8.592
					s-15.301-3.012-20.41-7.756c-5.277-4.899-7.436-12.311-7.436-19.88c0-7.57,2.307-15.005,7.583-19.904
					c5.109-4.744,12.561-9.598,20.263-9.598s15.604,5.143,20.713,9.886c5.277,4.899,9.647,11.954,9.647,19.524
					S665.953,117.59,660.677,122.489z"/>
				<path style="opacity:0.6;fill:#612601;" d="M673.522,101.965c0,0,2.253-0.627,4.674-1.776c1.258-0.597,1.953-1.988,1.613-3.339
					c-0.256-1.015-0.569-2.014-0.925-2.999c-1.056,3.114-8.223,7.416-9.469,8.07C668.168,102.574,670.616,101.979,673.522,101.965z"
					/>
				<path style="opacity:0.2;fill:#9A4B11;" d="M655.613,136.506c-4.558,2.261-9.605,3.681-14.969,3.681
					c-10.157,0-20.179-3.971-26.917-10.23c-2.732-2.532-4.83-5.58-6.367-8.945c-0.66-1.438-0.054-3.139,1.321-3.916l0.244-0.136
					c0,0-0.633-0.172-1.465-0.497c19.383-13.223,37.951-7.227,41.18,5.68C650.178,128.312,652.945,133.078,655.613,136.506z"/>
				<path style="fill:#FAB43C;" d="M609.458,96.917c-0.575,0.095-1.588,0.168-2.618,0.221c-0.147,0.008-0.289,0.033-0.43,0.062
					c-0.256,0.076-0.502,0.158-0.726,0.252c-0.882,0.442-1.516,1.308-1.601,2.343c-0.107,1.306-0.16,2.622-0.16,3.943
					c0,0.554,0.025,1.104,0.043,1.656c0.686-2.095,2.231-4.725,5.725-5.684c6.15-1.688,10.251-2.412,10.251-2.412
					C616.293,97.2,612.358,97.388,609.458,96.917z"/>
				<path style="opacity:0.6;fill:#612601;" d="M605.937,90.4c1.161,3.461,8.675,5.787,14.005,6.898
					C611.799,97.08,602.214,98.293,605.937,90.4z"/>
				<path style="fill:#FAB43C;" d="M673.701,102.512c5.113,0.763,4.806,1.517,4.91,3.959c0.092,2.159-0.77,8.876-2.811,11.737
					c3.695-5.607,5.541-12.424,4.564-15.732C677.467,102.054,675.186,102.06,673.701,102.512z"/>
				<g>
					<path style="fill:#612601;" d="M640.644,140.687c-10.081,0-20.27-3.874-27.257-10.363c-2.671-2.477-4.853-5.539-6.483-9.103
						c-0.646-1.411-0.247-3.08,0.892-4.101c-0.38-0.136-0.839-0.314-1.32-0.532c-0.957-0.433-1.667-1.293-1.9-2.3
						c-0.765-3.308-1.152-6.858-1.152-10.551c0-1.338,0.055-2.679,0.162-3.983c0.139-1.688,1.527-3.028,3.229-3.116
						c0.336-0.017,0.633-0.035,0.895-0.052c-0.274-0.105-0.565-0.221-0.867-0.348c-1.557-0.656-2.403-2.378-1.969-4.006
						c1.646-6.182,4.575-11.266,8.704-15.108c5.15-4.776,15.513-12.787,27.067-12.787c12.147,0,23.386,9.208,27.654,13.166
						c6.023,5.596,10.282,12.423,11.995,19.225c0.394,1.563-0.398,3.208-1.884,3.913c-0.84,0.399-1.656,0.734-2.368,1.004
						c0.163,0.003,0.322,0.005,0.473,0.008c1.313,0.02,2.669,0.04,3.516,0.154c0.646,0.087,1.126,0.633,1.141,1.299
						c0.004,0.17,0.005,0.342,0.005,0.515c0,8.302-4.68,16.676-14.306,25.601C661.239,134.451,652.118,140.687,640.644,140.687z
						 M640.644,65.336c-11.213,0-21.345,7.844-26.387,12.52c-3.989,3.712-6.822,8.635-8.418,14.633
						c-0.306,1.148,0.292,2.364,1.392,2.827c1.529,0.645,2.792,0.999,2.805,1.002c0.192,0.053,0.333,0.214,0.361,0.411
						c0.028,0.196-0.062,0.391-0.23,0.496c-0.158,0.099-0.424,0.264-3.3,0.413c-1.204,0.062-2.186,1.007-2.284,2.199
						c-0.105,1.278-0.159,2.59-0.159,3.901c0,3.617,0.379,7.091,1.127,10.325c0.163,0.706,0.663,1.31,1.337,1.615
						c1.132,0.512,2.16,0.798,2.17,0.801c0.195,0.054,0.339,0.22,0.363,0.421c0.025,0.201-0.075,0.397-0.251,0.497l-0.244,0.137
						c-1.165,0.653-1.653,2.09-1.113,3.271c1.576,3.443,3.68,6.399,6.254,8.786c6.807,6.322,16.742,10.096,26.577,10.096
						c11.149,0,20.045-6.09,25.546-11.199c9.28-8.604,13.985-16.971,13.985-24.868c0-0.164-0.001-0.329-0.005-0.492
						c-0.004-0.168-0.121-0.31-0.273-0.33c-0.788-0.106-2.175-0.127-3.397-0.146c-2.137-0.033-2.914-0.062-3.238-0.259
						c-0.171-0.104-0.263-0.298-0.235-0.496c0.027-0.198,0.169-0.36,0.361-0.413c0.021-0.006,2.242-0.631,4.595-1.747
						c1.055-0.501,1.619-1.664,1.342-2.765c-1.666-6.616-5.823-13.27-11.706-18.736C664.356,75.21,652.769,65.336,640.644,65.336z"
						/>
				</g>
				<path style="opacity:0.2;fill:#9A4B11;" d="M668.041,127.416c-0.497,0.488-1.004,0.968-1.51,1.438
					c-1.601,1.483-3.328,2.903-5.164,4.197c-1.936-2.921-4.378-7.941-7.055-16.579c-5.391-17.366-13.748-37.191-37.155-41.795
					c6.458-5.219,14.86-9.841,23.489-9.841c5.3,0,10.673,1.845,15.557,4.504c0.959,7.48,0.398,17.99,1.728,33.167
					C659.249,117.585,664.495,124.45,668.041,127.416z"/>
				<path style="fill:#A25012;" d="M620.633,123.325c5.109,4.744,12.708,7.756,20.41,7.756s14.525-3.848,19.634-8.591
					c1.458-1.354,2.925-2.847,4.291-4.452c-2.459,1.864-5.534,3.733-9.354,5.351c-14.061,5.956-37.892,1.525-42.417-19.944
					C613.197,111.015,615.356,118.426,620.633,123.325z"/>
				<path style="fill:#E69014;" d="M624.553,79.929c-2.519,3.119,12.776-3.994,11.54-5.18
					C634.858,73.562,627.098,76.777,624.553,79.929z"/>
			</g>
			<path style="fill:#532209;" d="M660.287,97.721c-0.945-8.465-7.869-15.109-16.329-16.097
				c-11.134-1.299-19.763,6.317-19.763,14.638c0,1.179,3.172,2.304,6.133,2.667c1.563,0.192,2.031-0.741,2.296-1.808
				c1.02-4.111,5.2-7.447,11.4-6.247c3.224,0.624,5.978,3.952,6.667,7.164c0.857,3.996-0.612,7.576-3.519,9.501
				c-0.638-2.766-1.805-5.637-3.558-4.19c-2.15,1.773-7.722,6.811-9.675,9.187c-0.65,0.791-0.482,1.959,0.365,2.535
				c2.544,1.729,9.258,4.623,11.82,5.718c2.056,0.878,2.389-2.091,2.239-4.886C655.991,113.438,661.267,106.492,660.287,97.721z"/>
			<path style="fill:#E69014;" d="M659.927,103.85c-1.42,5.81-5.82,10.2-11.56,12.05l1.512-2.334
				C649.878,113.566,656.706,112.025,659.927,103.85z"/>
			<path style="fill:#E69014;" d="M646.126,120.79c-2.57-1.1-9.28-3.99-11.82-5.72c-0.44-0.3-0.71-0.76-0.76-1.24l0.01-0.02
				c0.75,2.12,11.95,4.46,13.02,3.99c1.06-0.47,1.79-1.9,1.79-1.9C648.516,118.7,648.177,121.67,646.126,120.79z"/>

</svg>