<?xml version="1.0" encoding="utf-8"?>
<svg version="1.1" id="layer_1" xmlns="http://www.w3.org/2000/svg" x="0px" y="0px" viewBox="109.415 190.214 303.053 114.521" style="enable-background:new 0 0 500 500;" xmlns:bx="https://boxy-svg.com" width="303.053px" height="114.521px"><g transform="matrix(1.393851, 0, 0, 1.409303, -253.786301, -360.397888)" style=""><linearGradient id="SVGID_00000060005967004769711280000004816588377501262738_" gradientUnits="userSpaceOnUse" x1="422.2631" y1="287.3852" x2="387.3472" y2="381.3498"><stop offset="0" style="stop-color:#CF5C2B"/><stop offset="1" style="stop-color:#59173E"/></linearGradient><path style="fill:url(#SVGID_00000060005967004769711280000004816588377501262738_);" d="M468.944,453.744 c-0.11-1.509-0.21-3.019-0.302-4.53c-0.096-1.591-0.194-3.182-0.284-4.773c-0.061-1.087-0.15-2.241-0.177-3.356 c-0.023-0.936,0.356-2.473-0.146-3.311c-0.3-0.502-0.948-0.65-1.524-0.751c-0.757-0.133-1.514-0.265-2.271-0.398 c1.015-0.233,2.014-0.534,2.988-0.901c0.218-0.082,0.446-0.175,0.589-0.358c0.128-0.164,0.171-0.378,0.205-0.583 c0.338-2.071,0.124-4.27,0.115-6.362c-0.009-2.136-0.018-4.271-0.027-6.407c-0.014-2.032-0.019-4.065-0.035-6.097 c-0.005-0.673,0.276-2.134-0.053-2.729c-0.271-0.49-0.896-0.458-1.396-0.512c-0.501-0.053-1.006-0.053-1.508-0.023 c-0.751,0.046-1.496,0.16-2.238,0.275c0.973-0.272,1.979-0.4,2.961-0.637c0.636-0.154,1.265-0.356,1.845-0.664 c0.349-0.185,0.741-0.363,0.942-0.724c0.084-0.152,0.122-0.343,0.159-0.512c0.082-0.375,0.109-0.759,0.132-1.141 c0.065-1.053,0.105-2.107,0.121-3.162c0.008-0.532,0.016-1.066,0.005-1.598c-0.007-0.347-0.138-0.673-0.169-1.021 c-0.129-1.436-0.707-2.815-1.636-3.916c-0.924-1.096-2.178-1.897-3.565-2.263c-0.514-0.136-1.044-0.212-1.575-0.23 c-62.555-2.025-123.903-2.096-183.923-0.016c-0.233,0.008-0.496-0.014-0.72,0.045c-0.245,0.065-0.487,0.161-0.725,0.245 c-0.493,0.173-0.982,0.362-1.454,0.588c-0.918,0.439-1.782,1.03-2.374,1.871c-0.339,0.483-0.575,1.029-0.892,1.526 c-0.159,0.25-0.372,0.444-0.503,0.706c-0.635,1.272-1.276,2.56-2.153,3.687c-0.856,1.102-1.119,2.842-1.022,4.19 c0.132,1.834,0.176,3.689,0.339,5.516c0.26,2.918,0.022,5.841,0.338,8.776c0.045,0.421,0.114,0.881,0.432,1.16 c0.218,0.191,0.515,0.26,0.799,0.322c0.924,0.202,1.847,0.403,2.771,0.605c-1.143,0.741-2.848,0.797-3.45,2.018 c-0.194,0.393-0.228,0.843-0.258,1.281c-0.109,1.562-0.255,3.121-0.361,4.684c-0.047,0.702-0.086,1.405-0.11,2.108 c-0.022,0.672-0.079,1.313-0.142,1.981c-0.147,1.55-0.542,3.575-0.067,5.091c0.459,1.466,2.288,1.527,3.555,1.883 c-0.666,0.076-1.176,0.618-1.565,1.164c-0.196,0.275-0.335,0.57-0.521,0.851c-0.164,0.247-0.314,0.502-0.45,0.765 c-0.272,0.526-0.489,1.08-0.646,1.651c-0.106,0.383-0.165,0.683-0.183,1.081c-0.016,0.355-0.031,0.709-0.044,1.064 c-0.026,0.71-0.048,1.419-0.063,2.129c-0.031,1.419-0.042,2.839-0.03,4.259c0.011,1.374-0.314,2.707,0.27,4.063 c0.578,1.341,1.572,2.501,2.82,3.261c1.01,0.615,2.151,0.945,3.329,1.01c60.366,2.654,121.728,2.615,184.048-0.016 c1.646-0.07,3.233-0.727,4.445-1.844c0.584-0.538,1.088-1.01,1.521-1.681c0.527-0.818,1.021-1.657,1.481-2.515 C467.715,458.475,469.119,456.164,468.944,453.744z"/><linearGradient id="SVGID_00000078750127580701118830000014327550507037358525_" gradientUnits="userSpaceOnUse" x1="382.6878" y1="363.2114" x2="350.8539" y2="531.1093"><stop offset="0" style="stop-color:#CF5C2B"/><stop offset="1" style="stop-color:#59173E"/></linearGradient><path style="fill:url(#SVGID_00000078750127580701118830000014327550507037358525_);" d="M462.227,461.305 c-62.323,2.625-123.681,2.665-184.044,0.01c-2.685,0-5.189-1.921-6.184-4.344c-0.442-1.066-0.543-2.242-0.473-3.389 c0.01-0.201,0.03-0.402,0.091-0.603c0.09-0.312,0.231-0.583,0.271-0.905c0.02-0.171,0.04-0.332,0.06-0.503 c0.101-0.915,0.131-1.85,0.211-2.765c0.05-0.513,0.111-1.056,0.251-1.548c0.161-0.573,0.422-1.096,0.895-1.448 c1.991-1.488,5.872-1.468,8.768-1.529c0.563-0.02,1.086-0.03,1.559-0.06c1.257-0.081,2.514-0.111,3.781-0.101 c-2.986-0.01-5.973-0.272-8.909-0.784c-1.398-0.231-2.785-0.533-4.153-0.885c-0.332-0.08-0.684-0.191-0.995-0.342 c-0.432-0.191-0.804-0.473-0.996-0.895c-0.161-0.362-0.151-0.764-0.141-1.146c0.01-0.372-0.04-0.754-0.02-1.126 c0.03-0.794,0.131-1.569,0.211-2.353c0.08-0.634,0.151-1.277,0.191-1.921c0.101-1.709,0.211-3.409,0.342-5.108 c0.04-0.513,0.101-1.076,0.462-1.438c0.221-0.221,0.503-0.332,0.784-0.432c0.764-0.281,1.549-0.493,2.353-0.624 c0.372-0.07,0.774-0.07,1.136-0.171c0.422-0.131,0.754-0.221,1.217-0.271c4.404-0.513,8.798-1.026,13.203-1.538 c0.523-0.06,1.056-0.121,1.579-0.181c-6.637-0.804-13.273-1.629-19.91-2.433c-0.292-0.04-0.583-0.07-0.875-0.111 c-0.261-0.03-0.543-0.07-0.724-0.261c-0.02-0.01-0.03-0.03-0.04-0.04c-0.131-0.171-0.151-0.392-0.171-0.613 c-0.302-3.59,0.04-7.29-0.161-10.91c-0.02-0.201-0.07-1.217-0.131-2.363c-0.091-1.659-0.201-3.57-0.251-3.57 c-0.282-3.982,2.775-7.421,6.767-7.551c60.011-2.082,121.359-2.011,183.913,0.01c4.012,0.131,7.099,3.59,6.787,7.592 c-0.111,1.367,0.161,2.675-0.171,4.052c-0.07,0.322-0.181,0.654-0.422,0.875c-0.221,0.191-0.513,0.261-0.804,0.332 c-0.754,0.181-1.508,0.372-2.273,0.553c-1.006,0.241-2.001,0.462-3.017,0.573c-6.033,0.644-12.056,1.287-18.08,1.941 c-0.161,0.01-0.322,0.03-0.483,0.05c-0.191,0.02-0.392,0.04-0.583,0.06c0.483-0.01,0.955-0.02,1.438-0.02 c7.552-0.131,15.123-0.251,22.675-0.382c0.211,0,0.442,0,0.613,0.131c0.191,0.141,0.241,0.402,0.272,0.644 c0.04,0.322,0.05,0.633,0.04,0.935c-0.01,0.955-0.181,1.88-0.181,2.856c0,0.865,0.211,1.709,0.201,2.584 c-0.02,1.267-0.06,2.544-0.111,3.841c-0.121,2.906-0.322,5.852-0.644,8.758c-0.05,0.422-0.111,0.875-0.392,1.186 c-0.221,0.241-0.543,0.372-0.855,0.473c-0.191,0.07-0.392,0.131-0.593,0.171c-4.434,1.267-9.301,0.261-13.856,1.046 c-0.302,0.04-0.603,0.1-0.895,0.171c-0.101,0.02-0.201,0.05-0.302,0.07c0.372,0.03,0.744,0.05,1.116,0.09 c4.987,0.362,9.965,0.865,14.922,1.498c0.583,0.07,1.227,0.181,1.569,0.654c0.262,0.362,0.272,0.845,0.272,1.287v1.468 c0,1.478,0,2.966,0.07,4.445c0.091,1.961,0.211,3.911,0.342,5.872c0.06,0.955,0.121,1.921,0.191,2.876 C469.235,457.705,466.198,461.134,462.227,461.305z"/><linearGradient id="SVGID_00000091701796103858873060000017202553542495935381_" gradientUnits="userSpaceOnUse" x1="382.1718" y1="368.4303" x2="341.3509" y2="576.8988"><stop offset="0" style="stop-color:#CF5C2B"/><stop offset="1" style="stop-color:#59173E"/></linearGradient><path style="fill:url(#SVGID_00000091701796103858873060000017202553542495935381_);" d="M468.109,419.836 c-0.02,1.267-0.06,2.544-0.111,3.841c-2.554,0.231-5.068,0.432-7.522,0.704c-0.57,0.063-1.141,0.125-1.712,0.185 c-2.113,0.223-4.229,0.424-6.346,0.607c-1.059,0.092-2.118,0.174-3.177,0.262c-0.674,0.056-1.282,0.324-1.944,0.398 c-0.924,0.103-1.926-0.137-2.853-0.192c-1.034-0.061-2.07-0.082-3.105-0.07c-2.079,0.024-4.155,0.183-6.22,0.419 c-4.14,0.474-8.236,1.258-12.344,1.945c-6.584,1.1-13.213,1.932-19.864,2.494c3.623,0.359,7.222,0.95,10.77,1.768 c-1.33,0.109-2.661,0.204-3.993,0.287c-4.228,0.262-8.464,0.397-12.7,0.466c-4.239,0.069-8.479,0.071-12.719,0.066 c-4.24-0.005-8.481-0.018-12.721,0.021c-4.236,0.039-8.473,0.129-12.705,0.331c-2.115,0.101-4.229,0.229-6.34,0.392 c-0.528,0.041-1.056,0.084-1.583,0.129c-0.642,0.055-1.254,0.238-1.904,0.313c-5.055,0.589-10.093,1.332-15.087,2.315 c-7.763,1.528-15.556,3.017-23.449,3.56c-1.428,0.09-2.856,0.181-4.284,0.271c-6.797,1.368-14.138,1.649-20.805,2.464 c-2.262,0.282-4.575,0.432-6.888,0.523c-1.398-0.231-2.785-0.533-4.153-0.885c-0.332-0.08-0.684-0.191-0.995-0.342 c-0.432-0.191-0.804-0.473-0.996-0.895c-0.161-0.362-0.151-0.764-0.141-1.146c0.01-0.372-0.04-0.754-0.02-1.126 c0.03-0.794,0.131-1.569,0.211-2.353c6.104-0.503,12.358-2.273,18.23-3.117c7.542-1.076,15.214-1.719,22.816-2.142 c8.607-0.473,17.185,0.543,25.762,0.543c7.944,0,15.878-0.694,23.781-1.327c15.405-1.247,30.79-2.534,46.185-3.871 c-3.349-0.056-6.697-0.146-10.044-0.263c-4.267-0.149-8.533-0.34-12.797-0.559c-0.994-0.051-2.014-0.182-2.997-0.067 c-1.016,0.119-2.051,0.148-3.073,0.134c-2.031-0.028-4.059-0.287-6.031-0.772c-1.161-0.286-2.305-0.65-3.482-0.856 c-1.986-0.348-4.02-0.238-6.036-0.264c-7.533-0.097-14.959-2.091-22.492-2.013c-1.978,0.021-3.951,0.185-5.921,0.359 c-2.094,0.186-4.189,0.385-6.292,0.438c-0.926,0.023-1.9,0.093-2.8-0.12c-0.7-0.165-1.493-0.082-2.208-0.101 c-1.275-0.035-2.55-0.065-3.824-0.091c-2.55-0.052-5.1-0.086-7.651-0.099c-9.663-0.05-19.306,0.493-28.97,0.412 c-4.123-0.03-8.316-0.121-12.398-0.714c-0.02-0.01-0.03-0.03-0.04-0.04c-0.131-0.171-0.151-0.392-0.171-0.613 c-0.302-3.59,0.04-7.29-0.161-10.91c-0.02-0.201-0.07-1.217-0.131-2.363c4.927-0.422,9.895-0.533,14.822-0.895 c9.653-0.714,19.306-1.016,29-0.975c19.206,0.091,38.361,1.317,57.507,2.775c19.156,1.458,38.271,3.248,57.426,4.605 c9.683,0.684,19.377,1.106,29.08,1.106c2.846,0,5.711-0.171,8.587-0.392c-0.01,0.955-0.181,1.88-0.181,2.856 C467.908,418.117,468.119,418.962,468.109,419.836z M468.411,444.995c-0.07-1.478-0.07-2.966-0.07-4.445 c-6.114-0.664-12.238-1.347-18.391-1.77c-10.548-0.722-21.135-0.609-31.692-0.176c-2.198,0.09-4.359,0.141-6.535,0.42 c-1.052,0.135-2.105,0.265-3.158,0.389c-4.214,0.497-8.438,0.907-12.669,1.229c-1.65,0.126-3.301,0.238-4.953,0.337 c4.278-0.031,8.555-0.062,12.833-0.093c4.278-0.031,8.556-0.062,12.833-0.093c2.139-0.016,4.278-0.031,6.417-0.047 c1.069-0.008,2.139-0.016,3.208-0.023c0.451-0.003,0.914,0.026,1.358-0.071c0.271-0.059,0.526-0.17,0.802-0.211 c0.956-0.142,2.032,0.049,2.994,0.1c1.06,0.057,2.12,0.118,3.18,0.183c2.122,0.13,4.244,0.276,6.364,0.435 c3.34,0.25,6.677,0.531,10.013,0.83c3.64,0.332,7.26,0.754,10.88,1.197c-8.225,0.784-16.451,1.599-24.696,2.051 c-18.975,1.046-37.959,2.363-56.964,1.991c-18.743-0.372-37.446-1.448-56.2-1.378c-9.884,0.03-19.759,0.191-29.623,0.483 c-7.28,0.211-14.661,0.171-21.931,0.925c-0.141,0.493-0.201,1.036-0.251,1.548c-0.081,0.915-0.111,1.85-0.211,2.765 c8.095,0.332,16.29-0.221,24.364-0.241c9.875-0.02,19.749,0.08,29.623,0.312c18.713,0.442,37.406,1.478,56.119,1.81 c19.035,0.342,38.04-1.026,57.034-1.981c9.794-0.493,19.658-0.503,29.462-0.603h0.201 C468.622,448.907,468.501,446.956,468.411,444.995z"/><g><path style="fill:#EB924D;" d="M417.566,410.577c-3.906-2.184-10.391-1.51-13.483,1.43c-1.948,1.852-2.045,5.313,0,7.153 c4.508,4.056,12.421,2.325,15.279-2.696c0.055-0.049,0.109-0.099,0.164-0.148C421.708,414.343,420.154,411.067,417.566,410.577z"/><linearGradient id="SVGID_00000048459665624088918180000014746876453176506507_" gradientUnits="userSpaceOnUse" x1="419.3526" y1="394.3952" x2="409.5197" y2="420.682"><stop offset="0" style="stop-color:#CF5C2B"/><stop offset="1" style="stop-color:#59173E"/></linearGradient><path style="fill:url(#SVGID_00000048459665624088918180000014746876453176506507_);" d="M418.491,408.655 c-3.906-2.184-10.391-1.51-13.483,1.43c-1.948,1.852-2.045,5.313,0,7.153c4.508,4.056,12.421,2.325,15.279-2.696 c0.055-0.049,0.109-0.099,0.164-0.148C422.634,412.421,421.079,409.145,418.491,408.655z"/><linearGradient id="SVGID_00000059276957698581346360000015022636730997950891_" gradientUnits="userSpaceOnUse" x1="420.7482" y1="392.6524" x2="397.3854" y2="446.8232"><stop offset="0" style="stop-color:#CF5C2B"/><stop offset="1" style="stop-color:#59173E"/></linearGradient><path style="fill:url(#SVGID_00000059276957698581346360000015022636730997950891_);" d="M417.566,409.894 c-3.906-2.184-10.391-1.51-13.483,1.43c-1.948,1.852-2.045,5.313,0,7.153c4.508,4.056,12.421,2.325,15.279-2.696 c0.055-0.049,0.109-0.099,0.164-0.148C421.708,413.66,420.154,410.384,417.566,409.894z"/></g><g><path style="fill:#EB924D;" d="M344.311,443.096c-3.906-2.184-10.391-1.51-13.483,1.43c-1.948,1.853-2.045,5.313,0,7.153 c4.508,4.056,12.421,2.325,15.279-2.696c0.055-0.049,0.109-0.099,0.164-0.148C348.453,446.862,346.899,443.587,344.311,443.096z"/><linearGradient id="SVGID_00000114770662610741373050000004092137361763655092_" gradientUnits="userSpaceOnUse" x1="347.9226" y1="422.0367" x2="338.0897" y2="448.3235"><stop offset="0" style="stop-color:#CF5C2B"/><stop offset="1" style="stop-color:#59173E"/></linearGradient><path style="fill:url(#SVGID_00000114770662610741373050000004092137361763655092_);" d="M345.237,441.174 c-3.906-2.184-10.391-1.51-13.483,1.429c-1.948,1.852-2.045,5.313,0,7.153c4.508,4.056,12.421,2.325,15.279-2.696 c0.055-0.049,0.109-0.099,0.164-0.148C349.379,444.94,347.825,441.665,345.237,441.174z"/><linearGradient id="SVGID_00000036965143790491400940000008202203321661416107_" gradientUnits="userSpaceOnUse" x1="369.7476" y1="374.9262" x2="312.5816" y2="505.0049"><stop offset="0" style="stop-color:#CF5C2B"/><stop offset="1" style="stop-color:#59173E"/></linearGradient><path style="fill:url(#SVGID_00000036965143790491400940000008202203321661416107_);" d="M344.311,442.413 c-3.906-2.184-10.391-1.51-13.483,1.43c-1.948,1.853-2.045,5.313,0,7.153c4.508,4.056,12.421,2.325,15.279-2.696 c0.055-0.049,0.109-0.099,0.164-0.148C348.453,446.18,346.899,442.904,344.311,442.413z"/></g><path style="fill:#EB924D;" d="M273.135,439.917c-0.02,0.734-0.02,1.498,0.221,2.192c-0.432-0.191-0.804-0.473-0.996-0.895 c-0.161-0.362-0.151-0.764-0.141-1.146c0.01-0.372-0.04-0.754-0.02-1.126c0.06-1.438,0.322-2.846,0.402-4.274 c0.101-1.709,0.211-3.409,0.342-5.108c0.04-0.513,0.101-1.076,0.462-1.438c0.221-0.221,0.503-0.332,0.784-0.432 c0.764-0.281,1.549-0.493,2.353-0.624c0.372-0.07,0.774-0.07,1.136-0.171c0.422-0.131,0.754-0.221,1.217-0.271 c4.404-0.513,8.798-1.026,13.203-1.538c-4.726,0.955-9.452,1.9-14.178,2.856c-0.921,0.183-2.15,0.175-2.919,0.781 c-0.291,0.229-0.554,0.57-0.786,0.856c-0.075,0.093-0.732,1.408-0.478,1.417c3.473,0.116,6.946,0.231,10.418,0.347 c-2.573,0.418-5.138,0.884-7.694,1.396c-1.289,0.259-2.75,0.659-3.32,1.844c-0.359,0.746-0.334,1.754-0.214,2.557 c0.041,0.272,0.135,0.529,0.189,0.798C273.247,438.584,273.15,439.266,273.135,439.917z"/><path style="fill:#EB924D;" d="M443.634,413.029c-0.271-0.02-0.533-0.03-0.794-0.05h1.277 C443.956,412.989,443.795,413.009,443.634,413.029z"/><path style="fill:#EB924D;" d="M447.978,434.99c1.227,0.121,2.454,0.231,3.68,0.322c-0.302,0.04-0.603,0.1-0.895,0.171 C449.828,435.312,448.893,435.141,447.978,434.99z"/><path style="fill:#EB924D;" d="M466.078,433.17c0.191-0.764,0.141-1.569,0.08-2.353c-0.111-1.458-0.221-2.916-0.332-4.374 c-0.02-0.282-0.06-0.593-0.281-0.764c-0.181-0.141-0.433-0.141-0.654-0.131c-1.83,0.06-3.65,0.121-5.47,0.181 c1.971-0.171,3.922-0.694,5.701-1.549c0.513-0.251,1.046-0.563,1.237-1.086c0.1-0.271,0.1-0.563,0.1-0.855 c-0.03-2.293-0.432-4.857-0.704-7.129c-0.865-0.814-2.152-0.925-3.328-0.995c-4.766-0.292-9.543-0.583-14.309-0.875 c-1.136-0.081-2.413-0.121-3.63-0.171c7.552-0.131,15.123-0.251,22.675-0.382c0.211,0,0.442,0,0.613,0.131 c0.191,0.141,0.241,0.402,0.272,0.644c0.161,1.297-0.141,2.504-0.141,3.791c0,0.865,0.211,1.709,0.201,2.584 c-0.07,4.113-0.292,8.406-0.754,12.6c-0.05,0.422-0.111,0.875-0.392,1.186c-0.221,0.241-0.543,0.372-0.855,0.473 c-0.191,0.07-0.392,0.131-0.593,0.171C465.786,433.954,465.977,433.562,466.078,433.17z"/><path style="fill:#EB924D;" d="M271.797,410.535c-0.03-0.493-0.302-5.933-0.382-5.933c-0.282-3.982,2.775-7.421,6.767-7.551 c60.011-2.082,121.359-2.011,183.913,0.01c4.012,0.131,7.099,3.59,6.787,7.592c-0.111,1.367,0.161,2.675-0.171,4.052 c-0.07,0.322-0.181,0.654-0.422,0.875c-0.221,0.191-0.513,0.261-0.804,0.332c-0.752,0.18-1.5,0.385-2.255,0.547 c0.655-0.588,1.402-1.293,1.706-2.145c0.207-0.579,0.038-1.078-0.155-1.631c-0.299-0.854-0.353-1.669-0.388-2.569 c-0.043-1.107,0.154-2.699-0.728-3.583c-0.662-0.663-1.536-1.245-2.372-1.656c-2.061-1.014-4.439-1.223-6.701-1.313 c-0.114-0.004-0.228-0.009-0.341-0.012c-4.179-0.137-8.37-0.147-12.534,0.276c-0.506,0.051-0.949,0.193-1.436,0.287 c-0.612,0.118-1.333-0.029-1.953-0.061c-1.416-0.074-2.833-0.138-4.25-0.193c-2.834-0.109-5.67-0.181-8.506-0.215 c-2.126-0.025-4.251-0.029-6.377-0.033c-0.671-0.001-1.342-0.003-2.012-0.004c-1.292-0.003-2.583-0.005-3.875-0.007 c-1.791-0.003-3.581-0.007-5.371-0.01c-0.085,0-0.17,0-0.255,0c-2.837-0.005-5.674-0.011-8.511-0.016 c-1.418-0.003-2.837-0.005-4.255-0.008c-0.646-0.001-1.37,0.09-2.006-0.03c-0.645-0.122-1.173-0.511-1.857-0.572 c-0.616-0.055-1.254,0.051-1.865,0.1c-1.547,0.124-3.093,0.271-4.636,0.44c-0.699,0.077-1.462,0.19-1.931,0.714 c-0.161,0.181-0.28,0.404-0.477,0.544c-0.435,0.312-1.033,0.105-1.537-0.073c-1.004-0.355-2.063-0.554-3.127-0.596 c-0.958-0.037-1.91,0.129-2.868,0.072c-0.605-0.036-1.186-0.182-1.778-0.299c-2.334-0.46-4.777-0.489-7.141-0.659 c-1.754-0.127-3.511-0.219-5.268-0.281c-5.672-0.202-11.35-0.095-17.018,0.145c-2.838,0.12-5.674,0.274-8.509,0.439 c-1.296,0.076-2.74,0.35-4.03,0.183c-0.373-0.048-0.72-0.198-1.089-0.267c-0.387-0.072-0.777-0.061-1.168-0.058 c-1.575,0.01-3.15,0.027-4.725,0.036c-1.84,0.01-3.69,0-5.54,0c-0.622,0.002-1.225,0.125-1.833,0.126 c-0.555,0.001-1.109-0.122-1.669-0.117c-1.166,0.01-2.331,0.239-3.411,0.68c-0.418,0.171-0.845,0.376-1.296,0.35 c-0.826-0.048-1.399-0.827-2.145-1.183c-1.778-0.848-3.616,0.769-5.433,0.113c-0.903-0.326-1.827-0.277-2.777-0.287 c-1.213-0.013-2.426-0.018-3.639-0.013c-4.113,0.02-8.225,0.161-12.318,0.573c-2.041,0.211-4.072,0.483-6.094,0.845 c-0.975,0.171-1.971,0.462-2.956,0.573c-0.312,0.04-0.533,0.03-0.805,0.221c-1.204,0.848-4.533,5.572-2.158,7.233 c0.771,0.539,1.781,0.547,2.722,0.534c6.056-0.083,12.112-0.166,18.168-0.249c-6.538,0.519-13.076,1.039-19.614,1.558 c-0.423,0.034-0.86,0.071-1.233,0.273c-1.259,0.681-0.825,2.267-1.005,3.416c-0.235,1.504,0.059,3.132,0.204,4.64 c0.191,1.931,0.422,3.861,0.714,5.782c-0.292-0.04-0.583-0.07-0.875-0.111c-0.281-0.03-0.583-0.08-0.764-0.302 c-0.131-0.171-0.151-0.392-0.171-0.613C271.656,417.855,271.998,414.155,271.797,410.535z"/><path style="fill:#EB924D;" d="M462.227,461.305c-62.323,2.625-123.681,2.665-184.044,0.01c-2.685,0-5.189-1.921-6.184-4.344 c-0.442-1.066-0.543-2.242-0.473-3.389c0.01-0.201,0.03-0.402,0.091-0.603c0.09-0.312,0.231-0.583,0.271-0.905 c0.151-1.076,0.181-2.182,0.272-3.268c0.1-1.096,0.261-2.333,1.146-2.996c1.991-1.488,5.872-1.468,8.768-1.529 c2.363,0.03,4.716,0.05,7.119,0.181c-0.701,0-1.322,0.326-1.996,0.392c-0.928,0.091-1.869,0.109-2.8,0.164 c-1.838,0.107-3.676,0.215-5.513,0.323c-1.275,0.075-2.566,0.152-3.782,0.544c-0.46,0.148-0.92,0.35-1.25,0.703 c-0.36,0.385-0.527,0.908-0.659,1.418c-0.255,0.988-0.571,2.176-0.417,3.201c0.046,0.306,0.158,0.597,0.197,0.904 c0.042,0.336,0.009,0.67-0.003,1.007c-0.041,1.136,0.035,2.3,0.507,3.352c1.126,2.514,4.073,3.61,6.777,4.113 c3.308,0.603,6.093,1.176,9.432,0.724c4.878,0.052,9.755,0.103,14.633,0.151c2.852,0.028,5.705,0.071,8.557,0.083 c0.476,0.002,0.911-0.15,1.379-0.152c0.687-0.003,1.394,0.12,2.08,0.171c1.402,0.104,2.806,0.179,4.211,0.227 c3.444,0.116,6.893,0.062,10.332-0.162c0.819-0.053,1.615-0.202,2.409,0.034c1.147,0.341,2.355,0.329,3.546,0.382 c2.829,0.126,5.662,0.142,8.492,0.047c0.679-0.023,1.358-0.052,2.037-0.087c1.086-0.057,2.191-0.134,3.202-0.534 c0.522-0.206,1.012-0.496,1.553-0.644c1.538-0.422,3.112,0.357,4.607,0.91c1.938,0.718,4.069,0.376,6.1,0.513 c2.768,0.188,5.429,0.382,8.197,0.024c0.025-0.003,0.05-0.007,0.075-0.01c1.303-0.171,2.599-0.47,3.79-1.038 c0.621-0.297,1.245-0.673,1.933-0.66c0.829,0.017,1.524,0.59,2.236,1.016c2.236,1.336,5.016,1.306,7.605,1.019 c2.211-0.245,4.439-0.654,6.67-0.43c0.922,0.093,1.809-0.037,2.741-0.033c1.154,0.006,2.307,0.011,3.461,0.017 c9.512,0.05,19.035,0.081,28.537-0.241c4.012-0.131,8.034-0.332,12.046-0.603c2.122-0.141,4.243-0.302,6.365-0.473 c1.056-0.091,2.112-0.191,3.177-0.281c3.198-0.302,6.425-0.282,9.633-0.513c1.921-0.141,3.932-0.352,5.551-1.408 c0.925-0.603,1.659-1.549,1.981-2.614c0.161-0.513,0.221-1.066,0.131-1.599c-0.05-0.262-0.151-0.503-0.161-0.754 c-0.02-0.915-0.02-1.84-0.03-2.755c-0.01-1.428,0.141-2.906-0.06-4.314c-0.02-0.161-0.05-0.332-0.161-0.442 c-0.091-0.09-0.221-0.131-0.352-0.171c-0.543-0.151-1.076-0.302-1.609-0.452c0.714-0.352,1.508-0.774,1.76-1.528 c0.121-0.342,0.111-0.704,0.101-1.056c-0.02-0.855-0.05-1.74-0.382-2.524c-0.342-0.784-0.402-1.428-1.227-1.659 c-4.223-1.166-8.809-2.263-13.253-3.117c4.987,0.362,9.965,0.865,14.922,1.498c0.583,0.07,1.227,0.181,1.569,0.654 c0.262,0.362,0.272,0.845,0.272,1.287c0,1.971-0.02,3.942,0.07,5.913c0.141,2.916,0.322,5.832,0.533,8.748 C469.235,457.705,466.198,461.134,462.227,461.305z"/><path style="fill:#EB924D;" d="M354.012,407.427c-6.587,1.134-13.378,1.069-19.942-0.191 C340.71,406.877,347.366,407.207,354.012,407.427z"/><path style="fill:#EB924D;" d="M407.816,412.852c-3.313,0.549-6.712,0.395-10.077,0.239c-9.213-0.428-18.627-0.895-27.186-4.07 c5.22-0.019,10.395,0.848,15.565,1.523C393.243,411.473,400.659,412.176,407.816,412.852z"/><linearGradient id="SVGID_00000179647115891672156220000014300649796835143819_" gradientUnits="userSpaceOnUse" x1="399.7986" y1="362.0681" x2="383.2393" y2="393.3895"><stop offset="0" style="stop-color:#CF5C2B"/><stop offset="1" style="stop-color:#59173E"/></linearGradient><path style="fill:url(#SVGID_00000179647115891672156220000014300649796835143819_);" d="M412.022,412.56 c-2.445-0.077-4.88-0.344-7.312-0.61c-10.986-1.202-21.971-2.405-32.957-3.607c-11.915-1.304-23.905-2.61-35.862-1.782 c-1.59-0.02-3.289,0.171-4.879,0.151c7.326,0.813,14.715,1.066,22.079,0.756c2.901-0.122,5.813-0.331,8.702-0.036 c2.313,0.236,4.58,0.792,6.852,1.288c4.263,0.932,8.569,1.659,12.892,2.252c12.065,1.653,24.259,2.254,36.436,2.186 C415.734,412.89,414.275,412.631,412.022,412.56z"/><path style="fill:#EB924D;" d="M315.329,423.253c-5.827,0.646-11.727,0.633-17.552-0.037 C303.663,422.643,309.432,422.801,315.329,423.253z"/><linearGradient id="SVGID_00000003820288229189740450000003299065818959971732_" gradientUnits="userSpaceOnUse" x1="347.7834" y1="323.9125" x2="323.1371" y2="384.758"><stop offset="0" style="stop-color:#CF5C2B"/><stop offset="1" style="stop-color:#59173E"/></linearGradient><path style="fill:url(#SVGID_00000003820288229189740450000003299065818959971732_);" d="M319.934,423.303 c-8.258-0.165-16.519-0.199-24.778-0.101c0.967-0.011,2.013-0.234,2.988-0.357c1.027-0.13,2.055-0.26,3.085-0.365 c2.064-0.21,4.127-0.295,6.198-0.136c0.363,0.028,0.646-0.038,0.998-0.086c0.473-0.064,0.986,0.021,1.461,0.05 c1.057,0.065,2.113,0.143,3.168,0.233c2.11,0.18,4.216,0.408,6.315,0.686C319.556,423.251,319.745,423.277,319.934,423.303z"/><path style="fill:#EB924D;" d="M335.944,436.748c-2.251,0.882-4.503,1.763-6.754,2.644c-1.416,0.554-2.836,1.11-4.313,1.475 c-1.903,0.47-3.869,0.615-5.824,0.751c-4.923,0.343-9.941,0.634-14.733-0.55C315,440.963,325.478,438.866,335.944,436.748z"/><linearGradient id="SVGID_00000114755320743855486290000008136960999259528353_" gradientUnits="userSpaceOnUse" x1="366.5256" y1="331.5038" x2="341.8791" y2="392.3497"><stop offset="0" style="stop-color:#CF5C2B"/><stop offset="1" style="stop-color:#59173E"/></linearGradient><path style="fill:url(#SVGID_00000114755320743855486290000008136960999259528353_);" d="M345.982,434.27 c-5.702,1.49-11.404,2.98-17.106,4.47c-2.718,0.71-5.442,1.422-8.218,1.85c-3.441,0.531-6.934,0.621-10.415,0.666 c-3.087,0.04-6.174,0.044-9.261,0.013c1.192-0.187,2.389-0.342,3.589-0.465c0.487-0.05,1.013-0.032,1.492-0.106 c2.522-0.386,4.898-0.225,7.467-0.32c2.675-0.099,5.319-0.815,7.945-1.246c4.172-0.685,8.326-1.475,12.469-2.316 C337.962,436,341.972,435.135,345.982,434.27z"/><path style="fill:#EB924D;" d="M445.398,445.432c-4.724,1.702-9.901,1.394-14.912,1.075c-1.051-0.067-2.108-0.133-3.156-0.025 c-0.671,0.069-1.333,0.209-1.993,0.346c-2.975,0.619-5.971,1.193-9.006,1.351c-3.035,0.158-6.125-0.113-8.983-1.145 c7.918,1.272,16.079-1.204,24.098-1.373c1.996-0.042,3.995,0.049,5.99-0.052C440.16,445.473,442.668,445.469,445.398,445.432z"/><linearGradient id="SVGID_00000160905713684398749890000003648830070559800964_" gradientUnits="userSpaceOnUse" x1="464.3614" y1="362.9067" x2="439.7113" y2="423.7615" gradientTransform="matrix(0.9996 0.027 -0.027 0.9996 7.6655 -5.0858)"><stop offset="0" style="stop-color:#CF5C2B"/><stop offset="1" style="stop-color:#59173E"/></linearGradient><path style="fill:url(#SVGID_00000160905713684398749890000003648830070559800964_);" d="M404.288,446.721 c4.347,0.607,8.736,1.216,13.112,0.868c2.823-0.225,5.6-0.846,8.416-1.154c3.34-0.365,6.709-0.288,10.068-0.34 c6.03-0.094,12.054-0.609,18.013-1.539c-1.668-0.04-3.338-0.029-5.005,0.032c-1.468,0.053-2.927-0.031-4.401-0.002 c-3.271,0.064-6.536,0.276-9.796,0.547c-3.254,0.27-6.503,0.598-9.754,0.898c-3.245,0.299-6.494,0.571-9.75,0.727 c-3.258,0.156-6.525,0.195-9.784,0.029C405.038,446.767,404.654,446.772,404.288,446.721z"/></g><defs><bx:grid x="6.733" y="3.367" width="100" height="100"/><bx:export><bx:file format="svg"/></bx:export></defs></svg>